<?xml version="1.0" encoding="UTF-8"?>
<svg version="1.1" xmlns="http://www.w3.org/2000/svg" width="1080" height="1080">
<path d="M0 0 C16.17 0 32.34 0 49 0 C49 91.41 49 182.82 49 277 C32.83 277 16.66 277 0 277 C-0.33 269.74 -0.66 262.48 -1 255 C-2.19625 256.4025 -3.3925 257.805 -4.625 259.25 C-7.82171102 262.84629989 -10.82472646 265.54929597 -15 268 C-18.91775344 270.41305429 -18.91775344 270.41305429 -22.30859375 273.4609375 C-33.55237788 283.69200205 -54.30314414 282.67519045 -68.48632812 282.15673828 C-81.1659736 281.36610771 -93.58727177 277.82226456 -103.95703125 270.42578125 C-106.16383567 268.8229915 -106.16383567 268.8229915 -109.4375 267.1875 C-116.2905017 263.36779413 -122.12061373 257.76924792 -126 251 C-126.763125 250.278125 -127.52625 249.55625 -128.3125 248.8125 C-137.74203098 238.94438619 -142.45178767 224.57667205 -145.4140625 211.5078125 C-145.98532091 208.85616306 -145.98532091 208.85616306 -147.125 205.8125 C-149.66097219 197.66116082 -149.18628303 188.81735602 -149.18530273 180.36328125 C-149.18748126 178.26801983 -149.20567417 176.17329327 -149.22460938 174.078125 C-149.27399601 162.25869368 -148.13755132 151.12302758 -144 140 C-143.65066406 138.94167969 -143.30132812 137.88335938 -142.94140625 136.79296875 C-138.53398935 123.68632244 -132.8299318 112.8299318 -123 103 C-122.10129463 101.87729299 -121.20565067 100.75213098 -120.3125 99.625 C-113.13505823 91.23011874 -102.86580608 86.52229652 -93 82 C-92.10667969 81.58492188 -91.21335938 81.16984375 -90.29296875 80.7421875 C-78.16176552 75.71081289 -64.78822246 75.73384348 -51.875 76.25 C-50.43592285 76.30740356 -50.43592285 76.30740356 -48.96777344 76.3659668 C-43.3971226 76.66498685 -38.36339754 77.46038941 -33 79 C-33 79.66 -33 80.32 -33 81 C-32.071875 81.04125 -31.14375 81.0825 -30.1875 81.125 C-20.2223412 82.57447764 -9.59428555 90.60016252 -3 98 C-2.34 99.32 -1.68 100.64 -1 102 C-0.505 51.51 -0.505 51.51 0 0 Z M-85.75 136.265625 C-87.19489658 137.91410466 -87.19489658 137.91410466 -87 140 C-87.66 140 -88.32 140 -89 140 C-99.03511783 158.64057503 -101.72438448 178.60757572 -96.1171875 199.25 C-95.15972254 202.20532493 -94.12031532 205.10277429 -93 208 C-92.67902344 208.84820313 -92.35804688 209.69640625 -92.02734375 210.5703125 C-90.05565509 215.40773488 -87.96426352 218.48622097 -84 222 C-82.70521031 223.3303008 -81.41381592 224.66391091 -80.125 226 C-71.01549461 235.00791239 -61.54389383 239.34188491 -48.5625 239.5 C-40.84527627 239.44889256 -34.20926388 237.80847845 -27 235 C-27 234.34 -27 233.68 -27 233 C-26.2678125 232.74734375 -25.535625 232.4946875 -24.78125 232.234375 C-21.80875612 230.9151221 -19.90003156 229.43031036 -17.5 227.25 C-16.7678125 226.59515625 -16.035625 225.9403125 -15.28125 225.265625 C-2.74005465 212.81032825 1.18316087 194.79440043 1.375 177.5625 C1.22631921 162.68587591 -1.53104807 147.52323743 -10 135 C-10.66 135 -11.32 135 -12 135 C-12.24878906 134.4121875 -12.49757813 133.824375 -12.75390625 133.21875 C-17.01113334 125.63848358 -26.05350642 122.23946637 -34 120 C-53.84603101 115.02167358 -72.52715236 121.03573799 -85.75 136.265625 Z " fill="#FEBB12" transform="translate(339,383)"/>
<path d="M0 0 C0 64.68 0 129.36 0 196 C-15.51 196 -31.02 196 -47 196 C-47.33 187.09 -47.66 178.18 -48 169 C-49.98 171.97 -51.96 174.94 -54 178 C-57.10275822 181.28527341 -60.53726897 184.10109307 -64 187 C-64.66386719 187.63035156 -65.32773437 188.26070312 -66.01171875 188.91015625 C-79.98288469 201.39911598 -101.30629132 201.9673809 -119 201 C-128.59942414 200.04369454 -137.31002397 197.09416003 -146 193 C-146 192.34 -146 191.68 -146 191 C-147.051875 190.62875 -147.051875 190.62875 -148.125 190.25 C-159.78438768 185.18070101 -167.36901918 175.64101454 -172 164 C-172 163.34 -172 162.68 -172 162 C-172.66 162 -173.32 162 -174 162 C-174.65272461 159.66840696 -175.29725202 157.33502204 -175.9375 155 C-176.11990234 154.35160156 -176.30230469 153.70320312 -176.49023438 153.03515625 C-176.75610352 152.05869141 -176.75610352 152.05869141 -177.02734375 151.0625 C-177.27085571 150.18271484 -177.27085571 150.18271484 -177.51928711 149.28515625 C-179.18866297 141.34947417 -179.13654126 133.50046443 -179.11352539 125.42382812 C-179.1132429 124.06305951 -179.11340247 122.70229074 -179.1139679 121.34152222 C-179.11425344 117.66854584 -179.10839614 113.99560248 -179.10139394 110.32263374 C-179.0951198 106.47628067 -179.0945534 102.62992674 -179.09336853 98.78356934 C-179.09026715 91.50938882 -179.08206991 84.23522343 -179.07201904 76.96104956 C-179.06082076 68.67565497 -179.05533811 60.39025963 -179.05032361 52.10485935 C-179.03988625 35.069896 -179.02155568 18.03495347 -179 1 C-162.83 1 -146.66 1 -130 1 C-129.9906543 4.62242676 -129.98130859 8.24485352 -129.97167969 11.97705078 C-129.93782104 23.98317844 -129.88242107 35.98911759 -129.81609726 47.99510384 C-129.77642923 55.27001398 -129.74397506 62.54481786 -129.72900391 69.81982422 C-129.71592344 76.1669188 -129.68879784 82.51377839 -129.64538693 88.86074054 C-129.62291379 92.21592765 -129.60917726 95.57057417 -129.60811615 98.92587662 C-130.05705795 124.07237853 -130.05705795 124.07237853 -119 146 C-116.19486896 148.60476454 -113.49234953 150.44784465 -110 152 C-110 152.66 -110 153.32 -110 154 C-98.61979933 157.12908955 -84.93328907 160.02312931 -74 154 C-69.79967768 150.8227672 -66.05742451 147.15989017 -62.37695312 143.40380859 C-61.27900638 142.28444799 -60.15193821 141.19367354 -59.015625 140.11328125 C-52.44863838 133.39396762 -48.91164646 122.37921404 -48.84178162 113.07720947 C-48.8319928 112.08725479 -48.82220398 111.09730011 -48.81211853 110.0773468 C-48.80636307 108.9976915 -48.8006076 107.91803619 -48.79467773 106.80566406 C-48.78477814 105.6639122 -48.77487854 104.52216034 -48.76467896 103.34580994 C-48.73307266 99.56910277 -48.70830982 95.79238303 -48.68359375 92.015625 C-48.66302348 89.39816967 -48.64202699 86.78071767 -48.62062073 84.16326904 C-48.57074104 77.97625794 -48.52578473 71.78922126 -48.48259836 65.60216022 C-48.43318557 58.55743116 -48.37828245 51.51274824 -48.32291877 44.46806383 C-48.20917127 29.97875271 -48.10251127 15.48939487 -48 1 C-32.05180802 -0.329016 -16.00347185 0 0 0 Z " fill="#FEBA11" transform="translate(597,464)"/>
<path d="M0 0 C0 13.2 0 26.4 0 40 C-12 40.375 -12 40.375 -15.734375 40.47802734 C-28.10152591 40.84912993 -28.10152591 40.84912993 -38.40136719 47.05493164 C-43.80527253 53.62990321 -43.41462167 63.01147143 -43.25 71.0625 C-43.24226562 72.62774414 -43.24226562 72.62774414 -43.234375 74.22460938 C-43.62194472 78.95716602 -43.62194472 78.95716602 -42 83 C-38.89914779 83.16041193 -35.81812421 83.25963402 -32.71484375 83.31640625 C-31.31861534 83.3475779 -31.31861534 83.3475779 -29.8941803 83.37937927 C-26.90869818 83.44497931 -23.92312516 83.50380802 -20.9375 83.5625 C-18.91861024 83.6056753 -16.8997298 83.64928925 -14.88085938 83.69335938 C-9.92066487 83.80150018 -4.96040549 83.90049549 0 84 C0 97.53 0 111.06 0 125 C-9 126.125 -9 126.125 -12.12109375 126.11352539 C-12.82121582 126.11344986 -13.52133789 126.11337433 -14.24267578 126.11329651 C-14.96696777 126.10813522 -15.69125977 126.10297394 -16.4375 126.09765625 C-17.20304199 126.0962413 -17.96858398 126.09482635 -18.75732422 126.09336853 C-21.17159142 126.08782853 -23.58576144 126.07528779 -26 126.0625 C-27.64973823 126.05747723 -29.29947794 126.05291569 -30.94921875 126.04882812 C-34.96618255 126.03787886 -38.98307487 126.02065666 -43 126 C-43.00423194 126.78244552 -43.00846388 127.56489103 -43.01282406 128.37104702 C-43.11598605 147.38180119 -43.22460181 166.39251698 -43.33933926 185.40320492 C-43.39469222 194.59650825 -43.44817755 203.78981546 -43.49731445 212.9831543 C-43.54013097 220.99309473 -43.58640245 229.00300635 -43.63687855 237.01290232 C-43.66349997 241.25675562 -43.68835347 245.50060312 -43.70907402 249.74448967 C-43.72860863 253.73431871 -43.75274267 257.72409279 -43.78049088 261.71387291 C-43.7898782 263.18248246 -43.79754739 264.65110409 -43.80341911 266.1197319 C-43.81165174 268.1162578 -43.82651736 270.11275315 -43.84178162 272.10923767 C-43.84823417 273.22921615 -43.85468672 274.34919462 -43.8613348 275.50311184 C-44 278 -44 278 -45 279 C-46.50418739 279.09311889 -48.01271356 279.11746028 -49.51977539 279.11352539 C-50.96115623 279.11341209 -50.96115623 279.11341209 -52.43165588 279.11329651 C-53.476436 279.10813522 -54.52121613 279.10297394 -55.59765625 279.09765625 C-57.19364906 279.09553383 -57.19364906 279.09553383 -58.82188416 279.09336853 C-62.23545083 279.08775064 -65.648953 279.07519511 -69.0625 279.0625 C-71.37044176 279.05748731 -73.67838455 279.052924 -75.98632812 279.04882812 C-81.65757426 279.0377754 -87.32878253 279.02101987 -93 279 C-94.04440119 275.57213731 -94.12326283 272.43623735 -94.12025452 268.86236572 C-94.12162918 267.60315811 -94.12300385 266.3439505 -94.12442017 265.04658508 C-94.12088126 263.65377784 -94.11724645 262.26097083 -94.11352539 260.86816406 C-94.11324328 259.39961245 -94.11340172 257.93106069 -94.1139679 256.46250916 C-94.11425493 252.47732358 -94.10837331 248.49216807 -94.10139394 244.50698948 C-94.09514484 240.3416363 -94.09455537 236.17628244 -94.09336853 232.01092529 C-94.09025981 224.12391594 -94.0820526 216.23692043 -94.07201904 208.34991717 C-94.06084366 199.37055339 -94.05534386 190.39118894 -94.05032361 181.41181993 C-94.03986962 162.94120543 -94.02227905 144.47060383 -94 126 C-95.90072266 126.01740234 -95.90072266 126.01740234 -97.83984375 126.03515625 C-99.53906101 126.04454419 -101.23827989 126.05364331 -102.9375 126.0625 C-103.76830078 126.07087891 -104.59910156 126.07925781 -105.45507812 126.08789062 C-111.05226441 126.10966956 -116.44733582 125.71159268 -122 125 C-122.02464638 119.17928378 -122.0428343 113.35859766 -122.05493164 107.5378418 C-122.05997267 105.55606559 -122.06680538 103.57429311 -122.07543945 101.5925293 C-122.08751515 98.75047891 -122.09323045 95.90847753 -122.09765625 93.06640625 C-122.10281754 92.17474258 -122.10797882 91.28307892 -122.11329651 90.36439514 C-122.11349177 88.24259399 -122.0621003 86.1208922 -122 84 C-121 83 -121 83 -119.16162109 82.90234375 C-117.97947021 82.91974609 -117.97947021 82.91974609 -116.7734375 82.9375 C-115.90589844 82.94523437 -115.03835938 82.95296875 -114.14453125 82.9609375 C-112.32160989 82.98664866 -110.49869304 83.01268172 -108.67578125 83.0390625 C-107.80050781 83.04679687 -106.92523437 83.05453125 -106.0234375 83.0625 C-105.22856934 83.07410156 -104.43370117 83.08570313 -103.61474609 83.09765625 C-100.36457981 82.97626815 -97.21142609 82.50004734 -94 82 C-94.01047363 81.07364746 -94.02094727 80.14729492 -94.03173828 79.19287109 C-94.06626007 75.68519496 -94.0911091 72.17770487 -94.10986328 68.66992188 C-94.1197893 67.16500969 -94.13333455 65.66011609 -94.15087891 64.15527344 C-94.29483539 51.47016681 -94.19768336 38.81291672 -89 27 C-88.34 27 -87.68 27 -87 27 C-86.855625 26.05125 -86.71125 25.1025 -86.5625 24.125 C-83.86252468 14.79781254 -74.09849243 7.58751459 -66 3 C-49.8920688 -4.76197893 -16.61353728 -8.30676864 0 0 Z " fill="#00204C" transform="translate(898,381)"/>
<path d="M0 0 C48 0 48 0 50 1 C50.02286524 36.14374563 50.04049765 71.28748977 50.05106533 106.43124127 C50.05231611 110.57582427 50.05361042 114.72040726 50.05493164 118.86499023 C50.05519395 119.6901376 50.05545626 120.51528497 50.05572652 121.3654368 C50.06008345 134.74400674 50.06797112 148.12257241 50.0771528 161.50113981 C50.08648871 175.2183649 50.09205548 188.93558774 50.09408849 202.65281588 C50.09546385 211.12402426 50.09981513 219.59522055 50.10791647 228.06642521 C50.11318316 233.86740516 50.11480447 239.66837883 50.11350138 245.469361 C50.11285788 248.82131398 50.11441527 252.1732286 50.11920547 255.52518082 C50.12413523 259.15071055 50.12300095 262.77618734 50.12025452 266.40171814 C50.12316736 267.47270703 50.1260802 268.54369592 50.12908131 269.64713901 C50.12709026 270.61054724 50.12509921 271.57395547 50.12304783 272.56655788 C50.12361741 273.82362204 50.12361741 273.82362204 50.1241985 275.10608143 C50 277 50 277 49 278 C32.83 278 16.66 278 0 278 C0 186.26 0 94.52 0 0 Z " fill="#00214E" transform="translate(629,382)"/>
<path d="M0 0 C6.96003447 -0.02526838 13.9200572 -0.04283222 20.88012695 -0.05493164 C23.24992312 -0.05997341 25.61971615 -0.06680665 27.98950195 -0.07543945 C31.38754039 -0.0875119 34.78553785 -0.09322971 38.18359375 -0.09765625 C39.25024765 -0.10281754 40.31690155 -0.10797882 41.4158783 -0.11329651 C42.88729027 -0.11340981 42.88729027 -0.11340981 44.38842773 -0.11352539 C45.25668686 -0.115746 46.12494598 -0.11796661 47.01951599 -0.12025452 C49 0 49 0 50 1 C50.09994659 3.50183834 50.1344141 5.97613253 50.12698364 8.47851562 C50.12854363 9.27087364 50.13010362 10.06323166 50.13171089 10.87960052 C50.1357241 13.55516884 50.13253001 16.23068118 50.12939453 18.90625 C50.13074843 20.81608107 50.1325283 22.72591188 50.13470459 24.63574219 C50.13928028 29.83807001 50.13748881 35.04037811 50.1343255 40.2427063 C50.1318026 45.67417455 50.13413924 51.10564106 50.13571167 56.53710938 C50.13753357 65.66015935 50.13512652 74.78320125 50.13037109 83.90625 C50.12492844 94.47004596 50.12669108 105.03382262 50.1321975 115.5976181 C50.13672805 124.64980993 50.13737946 133.70199594 50.13475883 142.75418854 C50.13319573 148.1684043 50.13300318 153.58261098 50.13629532 158.99682617 C50.13917319 164.08566191 50.1371999 169.17447264 50.13140106 174.26330566 C50.13007301 176.13667764 50.13046834 178.01005169 50.13266373 179.88342285 C50.13537347 182.42947227 50.13199628 184.97544023 50.12698364 187.52148438 C50.12921436 188.27273338 50.13144509 189.02398239 50.13374341 189.79799652 C50.11414985 194.88585015 50.11414985 194.88585015 49 196 C47.50129952 196.09831146 45.99801461 196.12798456 44.49609375 196.12939453 C43.05955444 196.13412277 43.05955444 196.13412277 41.59399414 196.13894653 C40.55235107 196.1369223 39.51070801 196.13489807 38.4375 196.1328125 C37.37587646 196.13376923 36.31425293 196.13472595 35.22045898 196.13571167 C32.97086528 196.13639364 30.72126963 196.13453819 28.47167969 196.13037109 C25.01492929 196.1250231 21.55830883 196.13031554 18.1015625 196.13671875 C15.92187471 196.13605797 13.742187 196.13477682 11.5625 196.1328125 C10.52085693 196.13483673 9.47921387 196.13686096 8.40600586 196.13894653 C7.44831299 196.13579437 6.49062012 196.13264221 5.50390625 196.12939453 C4.65642822 196.12859894 3.8089502 196.12780334 2.93579102 196.12698364 C1 196 1 196 0 195 C-0.09773905 192.48325639 -0.12995545 189.99398173 -0.12025452 187.47679138 C-0.12110894 186.67964425 -0.12196337 185.88249711 -0.12284368 185.061194 C-0.12450092 182.36946835 -0.11897316 179.67780397 -0.11352539 176.98608398 C-0.11324355 175.06477866 -0.1134012 173.14347323 -0.1139679 171.22216797 C-0.11425597 165.98891366 -0.10835759 160.75568205 -0.10139394 155.52243304 C-0.0951621 150.0598021 -0.09455674 144.59717069 -0.09336853 139.13453674 C-0.09025471 128.78247776 -0.08204064 118.43042927 -0.07201904 108.07837492 C-0.06085947 96.29623148 -0.05534785 84.51408755 -0.05032361 72.73194015 C-0.03985807 48.48795427 -0.02225765 24.24397772 0 0 Z " fill="#00214E" transform="translate(711,464)"/>
<path d="M0 0 C0.76441406 -0.02449219 1.52882813 -0.04898437 2.31640625 -0.07421875 C10.0991556 -0.11385924 16.54396452 2.94480332 22.125 8.375 C28.42971536 17.01942559 28.90555435 24.85355508 28.125 35.375 C26.7384124 40.95008797 24.442911 46.49995166 20.125 50.375 C9.90879989 55.84963548 0.49289485 58.17639312 -11 55.375 C-17.65503572 53.08600682 -22.79665126 48.97709768 -26.32421875 42.86328125 C-29.93384612 34.18751021 -30.39225891 24.76046323 -27.25 15.875 C-25.20305723 11.38914669 -22.86860181 9.20380128 -18.875 6.375 C-18.215 5.653125 -17.555 4.93125 -16.875 4.1875 C-12.12494951 -0.11723326 -6.06772951 0.01012977 0 0 Z " fill="#00204C" transform="translate(735.875,380.625)"/>
<path d="M0 0 C3.625 0.1875 3.625 0.1875 6.625 2.1875 C3.655 2.1875 0.685 2.1875 -2.375 2.1875 C-2.375 14.3975 -2.375 26.6075 -2.375 39.1875 C6.865 39.1875 16.105 39.1875 25.625 39.1875 C26.99876619 41.93503238 26.74778863 44.1221009 26.74525452 47.19851685 C26.74662918 48.48021759 26.74800385 49.76191833 26.74942017 51.0824585 C26.74588078 52.51086449 26.74224596 53.93927025 26.73852539 55.36767578 C26.73824345 56.86548867 26.73840139 58.36330169 26.7389679 59.8611145 C26.73925559 63.93525833 26.73336338 68.00937291 26.72639394 72.08350992 C26.72015574 76.33829508 26.71955623 80.59308085 26.71836853 84.84786987 C26.7152566 92.90848392 26.70704505 100.96908445 26.69701904 109.02969253 C26.68585364 118.20489502 26.68034637 127.38009814 26.67532361 136.55530572 C26.66486233 155.43271148 26.64726554 174.31010466 26.625 193.1875 C27.66841553 193.15197021 28.71183105 193.11644043 29.78686523 193.07983398 C33.69487356 192.94848312 37.60311351 192.82567821 41.51147461 192.70532227 C43.19611876 192.65227911 44.88069371 192.59698459 46.56518555 192.53930664 C49.00033647 192.45633113 51.43562955 192.38172365 53.87109375 192.30859375 C54.98260048 192.26804115 54.98260048 192.26804115 56.11656189 192.22666931 C61.37940923 192.07978905 66.40189956 192.51682952 71.625 193.1875 C71.60620789 192.21155632 71.60620789 192.21155632 71.58703613 191.21589661 C70.89771035 154.97920487 70.49903292 118.74548472 70.44332886 82.50207138 C70.43748588 79.61803266 70.42777591 76.73403027 70.41699219 73.8500061 C70.40046306 69.29179971 70.39408844 64.73369205 70.39580345 60.175457 C70.39496092 58.4837939 70.39077573 56.79212889 70.38311195 55.10048294 C70.37339467 52.78489277 70.37607272 50.46964772 70.38208008 48.15405273 C70.38065506 46.85056381 70.37923004 45.54707489 70.37776184 44.2040863 C70.625 41.1875 70.625 41.1875 72.625 39.1875 C75.11348614 38.99983563 77.48839314 38.93178905 79.9765625 38.95703125 C80.70942474 38.95748947 81.44228699 38.95794769 82.19735718 38.9584198 C83.75251884 38.96144444 85.30767742 38.96933708 86.86279297 38.98168945 C89.21983849 38.99976865 91.57648661 39.00220025 93.93359375 39.00195312 C95.44792 39.00687569 96.96224362 39.0127072 98.4765625 39.01953125 C99.1727066 39.02064407 99.86885071 39.0217569 100.58609009 39.02290344 C105.40087393 39.06850249 109.78093665 39.58199208 114.625 40.1875 C114.625 27.9775 114.625 15.7675 114.625 3.1875 C104.395 3.1875 94.165 3.1875 83.625 3.1875 C83.625 2.5275 83.625 1.8675 83.625 1.1875 C94.845 1.1875 106.065 1.1875 117.625 1.1875 C117.625 14.7175 117.625 28.2475 117.625 42.1875 C108.625 43.3125 108.625 43.3125 105.50390625 43.30102539 C104.80378418 43.30094986 104.10366211 43.30087433 103.38232422 43.30079651 C102.65803223 43.29563522 101.93374023 43.29047394 101.1875 43.28515625 C100.42195801 43.2837413 99.65641602 43.28232635 98.86767578 43.28086853 C96.45340858 43.27532853 94.03923856 43.26278779 91.625 43.25 C89.97526177 43.24497723 88.32552206 43.24041569 86.67578125 43.23632812 C82.65881745 43.22537886 78.64192513 43.20815666 74.625 43.1875 C74.62076806 43.96994552 74.61653612 44.75239103 74.61217594 45.55854702 C74.50901395 64.56930119 74.40039819 83.58001698 74.28566074 102.59070492 C74.23030778 111.78400825 74.17682245 120.97731546 74.12768555 130.1706543 C74.08486903 138.18059473 74.03859755 146.19050635 73.98812145 154.20040232 C73.96150003 158.44425562 73.93664653 162.68810312 73.91592598 166.93198967 C73.89639137 170.92181871 73.87225733 174.91159279 73.84450912 178.90137291 C73.8351218 180.36998246 73.82745261 181.83860409 73.82158089 183.3072319 C73.81334826 185.3037578 73.79848264 187.30025315 73.78321838 189.29673767 C73.77676583 190.41671615 73.77031328 191.53669462 73.7636652 192.69061184 C73.625 195.1875 73.625 195.1875 72.625 196.1875 C71.12081261 196.28061889 69.61228644 196.30496028 68.10522461 196.30102539 C66.66384377 196.30091209 66.66384377 196.30091209 65.19334412 196.30079651 C64.148564 196.29563522 63.10378387 196.29047394 62.02734375 196.28515625 C60.43135094 196.28303383 60.43135094 196.28303383 58.80311584 196.28086853 C55.38954917 196.27525064 51.976047 196.26269511 48.5625 196.25 C46.25455824 196.24498731 43.94661545 196.240424 41.63867188 196.23632812 C35.96742574 196.2252754 30.29621747 196.20851987 24.625 196.1875 C23.58059881 192.75963731 23.50173717 189.62373735 23.50474548 186.04986572 C23.50337082 184.79065811 23.50199615 183.5314505 23.50057983 182.23408508 C23.50411874 180.84127784 23.50775355 179.44847083 23.51147461 178.05566406 C23.51175672 176.58711245 23.51159828 175.11856069 23.5110321 173.65000916 C23.51074507 169.66482358 23.51662669 165.67966807 23.52360606 161.69448948 C23.52985516 157.5291363 23.53044463 153.36378244 23.53163147 149.19842529 C23.53474019 141.31141594 23.5429474 133.42442043 23.55298096 125.53741717 C23.56415634 116.55805339 23.56965614 107.57868894 23.57467639 98.59931993 C23.58513038 80.12870543 23.60272095 61.65810383 23.625 43.1875 C21.72427734 43.20490234 21.72427734 43.20490234 19.78515625 43.22265625 C18.08593899 43.23204419 16.38672011 43.24114331 14.6875 43.25 C13.44129883 43.26256836 13.44129883 43.26256836 12.16992188 43.27539062 C6.57273559 43.29716956 1.17766418 42.89909268 -4.375 42.1875 C-4.39964638 36.36678378 -4.4178343 30.54609766 -4.42993164 24.7253418 C-4.43497267 22.74356559 -4.44180538 20.76179311 -4.45043945 18.7800293 C-4.46251515 15.93797891 -4.46823045 13.09597753 -4.47265625 10.25390625 C-4.47781754 9.36224258 -4.48297882 8.47057892 -4.48829651 7.55189514 C-4.48849177 5.43009399 -4.4371003 3.3083922 -4.375 1.1875 C-3.375 0.1875 -3.375 0.1875 0 0 Z " fill="#00255C" transform="translate(780.375,463.8125)"/>
<path d="M0 0 C0.33 0 0.66 0 1 0 C1.00331015 0.70530727 1.00662029 1.41061455 1.01003075 2.13729477 C1.09143882 19.34103466 1.18358878 36.54468393 1.28752708 53.74830246 C1.33753599 62.068023 1.38397972 70.38773427 1.421875 78.70751953 C1.45493412 85.96351783 1.49484097 93.21944156 1.54279006 100.47535729 C1.56791747 104.31323655 1.58973841 108.15106721 1.60334396 111.98900604 C1.61629043 115.61039348 1.63847655 119.2316131 1.66738319 122.85290718 C1.68060331 124.7971839 1.68435596 126.741518 1.68769836 128.68583679 C1.84490394 145.38813106 4.79947246 162.92518319 17.21875 175.19140625 C19 177 19 177 19 179 C19.58652344 179.27199219 20.17304688 179.54398438 20.77734375 179.82421875 C22.95688333 180.97719136 24.65909709 182.25442289 26.5625 183.8125 C42.81101 196.1038083 63.98245598 197.06164696 83.55126953 194.69091797 C92.7158109 193.14406824 100.94740549 189.57533779 109 185 C109 188 109 188 107.05078125 189.98828125 C103.25237567 192.49299172 99.50101922 193.81614996 95.1875 195.1875 C94.41857422 195.44724609 93.64964844 195.70699219 92.85742188 195.97460938 C72.75741842 202.5389143 49.86868182 199.88971415 31 191 C31 190.34 31 189.68 31 189 C29.948125 188.62875 29.948125 188.62875 28.875 188.25 C17.21561232 183.18070101 9.63098082 173.64101454 5 162 C5 161.34 5 160.68 5 160 C4.34 160 3.68 160 3 160 C2.34727539 157.66840696 1.70274798 155.33502204 1.0625 153 C0.88009766 152.35160156 0.69769531 151.70320312 0.50976562 151.03515625 C0.24389648 150.05869141 0.24389648 150.05869141 -0.02734375 149.0625 C-0.27085571 148.18271484 -0.27085571 148.18271484 -0.51928711 147.28515625 C-2.15185765 139.52443494 -2.14822543 131.84500003 -2.14526367 123.94628906 C-2.14862228 122.65432114 -2.1519809 121.36235321 -2.15544128 120.03123474 C-2.16422472 116.50882017 -2.16661682 112.98642993 -2.16725707 109.46400547 C-2.16797008 107.26151085 -2.17010901 105.05902233 -2.17275429 102.85652924 C-2.18198457 95.16850901 -2.18609154 87.48050606 -2.18530273 79.79248047 C-2.18470055 72.63054839 -2.19528572 65.46869128 -2.2110464 58.30677819 C-2.22411457 52.14863997 -2.22948703 45.99052632 -2.22884732 39.83237433 C-2.22859239 36.15804127 -2.23144177 32.4837751 -2.24202538 28.80945587 C-2.2534906 24.71829565 -2.24896405 20.62730462 -2.24291992 16.53613281 C-2.24853943 15.31943405 -2.25415894 14.10273529 -2.25994873 12.84916687 C-2.25575424 11.736147 -2.25155975 10.62312714 -2.24723816 9.47637939 C-2.24778293 8.50966938 -2.24832769 7.54295937 -2.24888897 6.54695511 C-1.99076224 3.90546726 -1.34536302 2.26524712 0 0 Z " fill="#FDD81A" transform="translate(420,466)"/>
<path d="M0 0 C0 13.2 0 26.4 0 40 C-12 40.375 -12 40.375 -15.734375 40.47802734 C-24.58150059 40.79461004 -31.86935873 41.17173463 -38.58984375 47.40234375 C-40.3794782 49.42993513 -41.30991048 51.39299517 -42 54 C-42.99 54 -43.98 54 -45 54 C-44.58116209 49.2531704 -42.4934677 46.10910083 -39 43 C-33.55842326 39.64807359 -28.65993686 37.86974651 -22.23828125 37.90234375 C-20.72681519 37.90609009 -20.72681519 37.90609009 -19.18481445 37.90991211 C-17.2680188 37.92356812 -17.2680188 37.92356812 -15.3125 37.9375 C-9.2178125 37.9684375 -9.2178125 37.9684375 -3 38 C-3 26.12 -3 14.24 -3 2 C-40.18234447 -1.47747316 -40.18234447 -1.47747316 -73.7421875 12.19140625 C-84.55129351 22.18261255 -89.53614692 35.11172716 -90.31518555 49.6887207 C-90.51071718 54.87452264 -90.57359648 60.06110046 -90.625 65.25 C-90.66154097 67.93431892 -90.70201828 70.61849358 -90.74765015 73.30267334 C-90.77482191 74.9596904 -90.79619698 76.61681479 -90.81118774 78.27398682 C-90.88918727 83.88918727 -90.88918727 83.88918727 -92 85 C-93.68608966 85.07205511 -95.37500659 85.08386068 -97.0625 85.0625 C-98.44115234 85.04896484 -98.44115234 85.04896484 -99.84765625 85.03515625 C-100.55792969 85.02355469 -101.26820313 85.01195312 -102 85 C-101.505 84.01 -101.505 84.01 -101 83 C-98.67843403 82.59270772 -96.3431213 82.25561323 -94 82 C-94.01047363 81.07364746 -94.02094727 80.14729492 -94.03173828 79.19287109 C-94.06626007 75.68519496 -94.0911091 72.17770487 -94.10986328 68.66992188 C-94.1197893 67.16500969 -94.13333455 65.66011609 -94.15087891 64.15527344 C-94.29483539 51.47016681 -94.19768336 38.81291672 -89 27 C-88.34 27 -87.68 27 -87 27 C-86.7834375 25.576875 -86.7834375 25.576875 -86.5625 24.125 C-83.86252468 14.79781254 -74.09849243 7.58751459 -66 3 C-49.8920688 -4.76197893 -16.61353728 -8.30676864 0 0 Z " fill="#00255B" transform="translate(898,381)"/>
<path d="M0 0 C14.19 0 28.38 0 43 0 C43 0.66 43 1.32 43 2 C43.66 2 44.32 2 45 2 C45.00146656 2.60038904 45.00293312 3.20077808 45.00444412 3.81936073 C45.04163634 18.48692093 45.10081401 33.15428138 45.18390274 47.82164955 C45.2235655 54.91495728 45.2560223 62.00815612 45.27099609 69.1015625 C45.28407935 75.29044701 45.31121182 81.47909064 45.35461307 87.66783941 C45.37707977 90.93913748 45.39082244 94.21007961 45.39188385 97.48146439 C45.00473543 122.33774596 45.00473543 122.33774596 56 144 C58.80513104 146.60476454 61.50765047 148.44784465 65 150 C65 150.66 65 151.32 65 152 C75.86720417 154.9880365 85.86158147 156.05836646 97 154 C96 157 96 157 93.75390625 158.16796875 C84.49342831 160.96581528 73.73420817 158.7792541 65.1953125 154.640625 C53.41741647 147.8604712 46.69119436 137.96650326 43 125 C41.71564467 119.18390765 41.8667888 113.41025889 41.88647461 107.48681641 C41.88632858 106.33501892 41.88618256 105.18322144 41.8860321 103.996521 C41.88672749 100.19818219 41.89450241 96.39989272 41.90234375 92.6015625 C41.90420926 89.96454902 41.90563253 87.32753519 41.90663147 84.69052124 C41.90973453 78.46458554 41.91793407 72.23866748 41.92798096 66.01273954 C41.93917397 58.92204853 41.94466057 51.83135665 41.94967639 44.740659 C41.96011756 30.16042895 41.97845027 15.58021798 42 1 C28.14 1 14.28 1 0 1 C0 0.67 0 0.34 0 0 Z " fill="#FDD917" transform="translate(422,466)"/>
<path d="M0 0 C0.76441406 -0.02449219 1.52882813 -0.04898437 2.31640625 -0.07421875 C10.0991556 -0.11385924 16.54396452 2.94480332 22.125 8.375 C28.42971536 17.01942559 28.90555435 24.85355508 28.125 35.375 C26.7384124 40.95008797 24.442911 46.49995166 20.125 50.375 C9.90879989 55.84963548 0.49289485 58.17639312 -11 55.375 C-17.65503572 53.08600682 -22.79665126 48.97709768 -26.32421875 42.86328125 C-29.96630089 34.10950487 -30.39890476 24.67528798 -27.125 15.75 C-25.64518867 12.21489516 -24.07423944 10.48542265 -20.875 8.375 C-20.215 8.705 -19.555 9.035 -18.875 9.375 C-19.22433594 10.00148438 -19.57367187 10.62796875 -19.93359375 11.2734375 C-20.38863281 12.09070313 -20.84367188 12.90796875 -21.3125 13.75 C-21.76496094 14.56210937 -22.21742188 15.37421875 -22.68359375 16.2109375 C-26.20670974 22.61030229 -25.63534108 30.80597793 -24.44921875 37.93359375 C-22.76601972 43.23102383 -19.46572754 46.50802813 -14.875 49.375 C-7.11155869 53.25672066 1.57674085 53.62093119 9.875 51.25 C15.74924767 48.99715233 19.77054254 45.6324291 23 40.25 C25.64844695 32.76813736 26.02336353 24.73362123 23.078125 17.34375 C20.38560616 11.7821537 17.54214932 8.11569072 12.046875 5.31640625 C8.08867232 4.04110298 4.4452591 4.04543659 0.3125 4.0625 C-0.84088867 4.03833008 -0.84088867 4.03833008 -2.01757812 4.01367188 C-7.60758754 4.00895457 -11.74488826 5.15799618 -16.875 7.375 C-16.875 6.715 -16.875 6.055 -16.875 5.375 C-16.215 5.375 -15.555 5.375 -14.875 5.375 C-14.875 4.385 -14.875 3.395 -14.875 2.375 C-9.80376573 0.3497467 -5.37591858 0.00897482 0 0 Z " fill="#00255C" transform="translate(735.875,380.625)"/>
<path d="M0 0 C0.99 0 1.98 0 3 0 C3.02336818 14.77739656 3.04099845 29.55479067 3.05181217 44.33220196 C3.05696679 51.19372361 3.06399362 58.05523377 3.07543945 64.91674805 C3.0864772 71.53678677 3.0922823 78.15681669 3.09487724 84.77686501 C3.09672685 87.30425009 3.1003386 89.8316345 3.10573006 92.35901451 C3.11297443 95.89520054 3.11398949 99.43133705 3.11352539 102.9675293 C3.11712067 104.01553711 3.12071594 105.06354492 3.12442017 106.14331055 C3.1230455 107.10939743 3.12167084 108.07548431 3.12025452 109.07084656 C3.12117631 109.90691279 3.1220981 110.74297903 3.12304783 111.60438061 C2.99226912 114.15051255 2.55824805 116.51537259 2 119 C1.34 119 0.68 119 0 119 C0 79.73 0 40.46 0 0 Z " fill="#FCCF16" transform="translate(549,465)"/>
<path d="M0 0 C15.51 0 31.02 0 47 0 C47 0.99 47 1.98 47 3 C32.15 3 17.3 3 2 3 C2 36 2 69 2 103 C1.34 103 0.68 103 0 103 C-1.27192839 98.14772495 -1.09339037 93.40929445 -1.02172852 88.4362793 C-1.01212097 87.47969925 -1.00251343 86.5231192 -0.99261475 85.53755188 C-0.9596949 82.38303097 -0.9193358 79.2286516 -0.87890625 76.07421875 C-0.85459829 73.88418575 -0.83075506 71.69414754 -0.80735779 69.50410461 C-0.74458423 63.74520939 -0.67549848 57.98640652 -0.60510254 52.2276001 C-0.52191604 45.31513597 -0.44656156 38.40258257 -0.36989594 31.49004364 C-0.25260061 20.99328175 -0.12535079 10.49668271 0 0 Z " fill="#FDD712" transform="translate(339,383)"/>
<path d="M0 0 C0.99 0.845625 1.98 1.69125 3 2.5625 C3.64195312 3.11035156 4.28390625 3.65820312 4.9453125 4.22265625 C6.28619698 5.38254682 7.61505188 6.5565348 8.9296875 7.74609375 C28.82589555 25.68464277 51.01220317 29.13649257 77 28 C87.57156918 27.12291991 97.71593498 23.80480724 106.20703125 17.3125 C108 16 108 16 110 16 C108.5993784 19.501554 107.37735911 20.46483677 104 22 C103.58363281 22.46148438 103.16726563 22.92296875 102.73828125 23.3984375 C91.54946317 33.70723618 70.69424133 32.67509488 56.51367188 32.15673828 C43.8340264 31.36610771 31.41272823 27.82226456 21.04296875 20.42578125 C18.83616433 18.8229915 18.83616433 18.8229915 15.5625 17.1875 C9.63208372 13.86034157 3.22537286 9.11711161 0.70703125 2.7109375 C0.47371094 1.81632813 0.24039063 0.92171875 0 0 Z " fill="#FCD817" transform="translate(214,633)"/>
<path d="M0 0 C1.32 0.33 2.64 0.66 4 1 C4 8.59 4 16.18 4 24 C8.60388672 23.98259766 8.60388672 23.98259766 13.30078125 23.96484375 C16.26944882 23.9570477 19.23811525 23.95097405 22.20678711 23.94506836 C24.27189646 23.94003586 26.33700224 23.93320931 28.40209961 23.92456055 C31.36833578 23.91244764 34.33452489 23.90676089 37.30078125 23.90234375 C38.68841423 23.89460182 38.68841423 23.89460182 40.1040802 23.88670349 C40.96474594 23.88662796 41.82541168 23.88655243 42.7121582 23.88647461 C43.84800102 23.88314369 43.84800102 23.88314369 45.00679016 23.87974548 C47 24 47 24 50 25 C50 25.66 50 26.32 50 27 C33.83 27 17.66 27 1 27 C0.67 19.74 0.34 12.48 0 5 C-1.8253125 7.165625 -1.8253125 7.165625 -3.6875 9.375 C-6.56854295 12.79318655 -8.71506993 14.63422544 -13 16 C-11.54974765 12.63361113 -9.70513547 10.51960775 -7.0625 8 C-4.42391364 5.4748482 -2.12025863 2.97766729 0 0 Z " fill="#FBC712" transform="translate(338,633)"/>
<path d="M0 0 C0.95849854 0.03859131 1.91699707 0.07718262 2.90454102 0.11694336 C8.47639364 0.41379038 13.51069307 1.21012836 18.875 2.75 C18.875 3.41 18.875 4.07 18.875 4.75 C19.803125 4.79125 20.73125 4.8325 21.6875 4.875 C31.71335524 6.33330622 42.19076769 14.37565521 48.875 21.75 C50.0625 24.4375 50.0625 24.4375 50.875 26.75 C49.885 26.75 48.895 26.75 47.875 26.75 C46.3671875 25.2109375 46.3671875 25.2109375 44.75 23.125 C40.99118872 18.62714125 36.8253973 15.79897566 31.875 12.75 C30.93269531 12.07839844 29.99039063 11.40679687 29.01953125 10.71484375 C12.29873532 0.26694269 -12.35064356 3.0348875 -31.125 4.75 C-30.795 3.76 -30.465 2.77 -30.125 1.75 C-20.0198888 0.22351004 -10.22324892 -0.44161794 0 0 Z " fill="#FBD716" transform="translate(287.125,459.25)"/>
<path d="M0 0 C0.99 0.33 1.98 0.66 3 1 C2.9278125 1.61746094 2.855625 2.23492188 2.78125 2.87109375 C0.88380499 20.18527945 2.97351746 36.34835905 11 52 C11 52.99 11 53.98 11 55 C12.32 55.66 13.64 56.32 15 57 C14.67 57.99 14.34 58.98 14 60 C10.66488612 57.0098979 8.78478881 54.10501426 7 50 C7 49.34 7 48.68 7 48 C6.34 48 5.68 48 5 48 C4.36509824 46.37884308 3.74274208 44.75277293 3.125 43.125 C2.77695313 42.22007812 2.42890625 41.31515625 2.0703125 40.3828125 C-0.54231306 32.1253901 -1.29963321 24.32175706 -1.1875 15.6875 C-1.18685547 14.72521484 -1.18621094 13.76292969 -1.18554688 12.77148438 C-1.15804898 8.35654417 -0.9660506 4.32337757 0 0 Z " fill="#FCDB15" transform="translate(239,545)"/>
<path d="M0 0 C13.21099572 -0.45208731 26.60683942 1.50623365 37.25 10.0625 C42.93365971 15.46078767 47.93443462 22.76960085 51 30 C51 30.99 51 31.98 51 33 C50.01 33 49.02 33 48 33 C47.62488281 32.11957031 47.24976563 31.23914063 46.86328125 30.33203125 C46.35152344 29.17058594 45.83976562 28.00914062 45.3125 26.8125 C44.81363281 25.66394531 44.31476563 24.51539063 43.80078125 23.33203125 C38.95764298 14.3706496 30.17401077 8.96614886 20.765625 5.8125 C16.87092445 4.66829419 12.98285366 3.78351219 9 3 C9 2.34 9 1.68 9 1 C6.03 1 3.06 1 0 1 C0 0.67 0 0.34 0 0 Z " fill="#FDD919" transform="translate(287,499)"/>
<path d="M0 0 C3.52633646 0.58641959 5.2453807 1.87086107 7.8125 4.3125 C11.4082085 7.55659863 14.64720569 9.86178525 19 12 C19.60714844 12.2990625 20.21429688 12.598125 20.83984375 12.90625 C31.13820603 17.17582054 44.22454039 15.36831233 55 14 C50.78816681 18.21183319 43.92017233 19.18745397 38.125 19.375 C24.69593522 18.85206134 10.28131835 13.42841409 1.0390625 3.48046875 C0 2 0 2 0 0 Z " fill="#FBD415" transform="translate(254,606)"/>
<path d="M0 0 C0 0.66 0 1.32 0 2 C-1.609375 3.515625 -1.609375 3.515625 -3.75 5.25 C-6.39698176 7.48076025 -8.54352975 9.49456498 -10.375 12.4375 C-10.91125 13.283125 -11.4475 14.12875 -12 15 C-12.66 15 -13.32 15 -14 15 C-14.2475 15.804375 -14.495 16.60875 -14.75 17.4375 C-16.0009897 21.00282065 -17.48816739 24.37129451 -19.046875 27.80859375 C-20.21159635 30.48649816 -21.1415618 33.21007585 -22 36 C-22.66 36 -23.32 36 -24 36 C-23.50382892 23.09955194 -15.20019726 12.40451665 -7 3 C-3.60542797 0 -3.60542797 0 0 0 Z " fill="#FCD815" transform="translate(264,508)"/>
<path d="M0 0 C1.485 0.2475 1.485 0.2475 3 0.5 C3 1.16 3 1.82 3 2.5 C1.07800781 2.59087891 1.07800781 2.59087891 -0.8828125 2.68359375 C-10.9332787 3.16742576 -20.96752244 3.71932708 -31 4.5 C-30.67 3.51 -30.34 2.52 -30 1.5 C-27.16724047 1.16103732 -24.33395339 0.82870306 -21.5 0.5 C-20.31277344 0.35691406 -20.31277344 0.35691406 -19.1015625 0.2109375 C-12.74259166 -0.51878046 -6.35879992 -1.05979999 0 0 Z " fill="#FEF41A" transform="translate(287,459.5)"/>
<path d="M0 0 C0.99 0.33 1.98 0.66 3 1 C4.140625 3.5546875 4.140625 3.5546875 5.25 6.875 C7.38143336 12.78695735 10.09536721 17.68685673 13.64453125 22.85546875 C15 25 15 25 15 27 C13.21484375 26.828125 13.21484375 26.828125 11 26 C5.31959287 18.62944937 2.04555731 9.70159232 -1 1 C-0.67 0.67 -0.34 0.34 0 0 Z " fill="#FBD919" transform="translate(198,605)"/>
<path d="M0 0 C1.32 0.33 2.64 0.66 4 1 C3.09507812 2.34191406 3.09507812 2.34191406 2.171875 3.7109375 C-2.38273574 10.56613506 -6.40420314 17.12184729 -9 25 C-9.99 24.67 -10.98 24.34 -12 24 C-8.73009769 15.50126774 -4.77041799 7.75364769 0 0 Z " fill="#FCD919" transform="translate(209,493)"/>
<path d="M0 0 C0.66 0 1.32 0 2 0 C0.08051383 9.59743084 -7.84254658 16.01659526 -15 22 C-15.99 21.67 -16.98 21.34 -18 21 C-17.20335937 20.23816406 -16.40671875 19.47632813 -15.5859375 18.69140625 C-10.05613741 13.32716904 -5.00915421 8.25200901 -1.0859375 1.546875 C-0.72757813 1.03640625 -0.36921875 0.5259375 0 0 Z " fill="#FDDE1A" transform="translate(548,629)"/>
<path d="M0 0 C0.99 0 1.98 0 3 0 C1.46579157 9.66551314 -2.806094 16.44085042 -10 23 C-10.33 22.34 -10.66 21.68 -11 21 C-10.24332031 20.17242188 -9.48664063 19.34484375 -8.70703125 18.4921875 C-5.79262916 14.99490499 -4.24510096 11.36627754 -2.6875 7.125 C-2.42388672 6.43664062 -2.16027344 5.74828125 -1.88867188 5.0390625 C-1.24863853 3.36333884 -0.62280086 1.68220438 0 0 Z " fill="#FCD91A" transform="translate(336,585)"/>
<path d="M0 0 C0.66 0 1.32 0 2 0 C3.32915021 7.97490128 3.08801359 15.94186719 3 24 C2.34 24 1.68 24 1 24 C0.13036913 21.00293305 -0.11763099 18.35043474 -0.09765625 15.234375 C-0.09443359 14.34492187 -0.09121094 13.45546875 -0.08789062 12.5390625 C-0.07532227 11.15847656 -0.07532227 11.15847656 -0.0625 9.75 C-0.05798828 8.81414063 -0.05347656 7.87828125 -0.04882812 6.9140625 C-0.03706918 4.60930959 -0.02063426 2.30468773 0 0 Z " fill="#FAD515" transform="translate(190,557)"/>
<path d="M0 0 C0.33 0 0.66 0 1 0 C1 8.91 1 17.82 1 27 C0.01 26.67 -0.98 26.34 -2 26 C-2.05799124 22.22923111 -2.09359306 18.45857666 -2.125 14.6875 C-2.14175781 13.61564453 -2.15851563 12.54378906 -2.17578125 11.43945312 C-2.18222656 10.41142578 -2.18867188 9.38339844 -2.1953125 8.32421875 C-2.20578613 7.37635498 -2.21625977 6.42849121 -2.22705078 5.4519043 C-2 3 -2 3 0 0 Z " fill="#FDDF15" transform="translate(341,546)"/>
<path d="M0 0 C0.66 0.33 1.32 0.66 2 1 C-0.37906207 8.61299862 -5.79134603 14.26959697 -12 19 C-12 15 -12 15 -10.609375 13.25390625 C-9.99578125 12.69574219 -9.3821875 12.13757813 -8.75 11.5625 C-3.34195081 6.49480514 -3.34195081 6.49480514 0 0 Z " fill="#FDDE1A" transform="translate(543,596)"/>
<path d="M0 0 C0 0.66 0 1.32 0 2 C-2.93253346 3.03551045 -5.87166938 4.05081838 -8.8125 5.0625 C-9.64587891 5.35705078 -10.47925781 5.65160156 -11.33789062 5.95507812 C-12.54155273 6.3659668 -12.54155273 6.3659668 -13.76953125 6.78515625 C-14.87711792 7.17006226 -14.87711792 7.17006226 -16.00708008 7.56274414 C-18 8 -18 8 -21 7 C-18.47604962 3.97299421 -15.89052657 3.02821061 -12.1875 1.8125 C-11.17042969 1.46832031 -10.15335937 1.12414062 -9.10546875 0.76953125 C-5.94499835 -0.01362934 -3.24171449 -0.14052275 0 0 Z " fill="#FEDD16" transform="translate(285,500)"/>
<path d="M0 0 C0 0.99 0 1.98 0 3 C-2.30745381 4.70410173 -4.55567191 6.20816244 -7 7.6875 C-7.66773438 8.10322266 -8.33546875 8.51894531 -9.0234375 8.94726562 C-10.67636538 9.97444224 -12.33744888 10.98847336 -14 12 C-14.66 11.01 -15.32 10.02 -16 9 C-10.72 6.03 -5.44 3.06 0 0 Z " fill="#FCD918" transform="translate(243,466)"/>
<path d="M0 0 C0.66 0 1.32 0 2 0 C1.67 6.27 1.34 12.54 1 19 C0.67 19 0.34 19 0 19 C0 17.35 0 15.7 0 14 C-0.66 14 -1.32 14 -2 14 C-1.85923685 12.0412957 -1.7122324 10.08303907 -1.5625 8.125 C-1.48128906 7.03445313 -1.40007812 5.94390625 -1.31640625 4.8203125 C-1 2 -1 2 0 0 Z " fill="#FCD71C" transform="translate(192,536)"/>
<path d="M0 0 C-1.34842555 5.56225539 -5.56689879 8.73442841 -10 12 C-10.99 12.33 -11.98 12.66 -13 13 C-11.46781315 9.36938333 -9.2816856 7.0136227 -6.5 4.25 C-5.7059375 3.45078125 -4.911875 2.6515625 -4.09375 1.828125 C-2 0 -2 0 0 0 Z " fill="#FEE31A" transform="translate(338,636)"/>
<path d="M0 0 C0.66 0.33 1.32 0.66 2 1 C2 3 2 3 0.42578125 4.5859375 C-0.27160156 5.17632812 -0.96898437 5.76671875 -1.6875 6.375 C-2.77611328 7.30119141 -2.77611328 7.30119141 -3.88671875 8.24609375 C-6.23449112 10.19461463 -8.59564775 12.1215998 -11 14 C-10.40762384 10.42973289 -9.02819396 8.54183549 -6.625 5.875 C-6.01914063 5.19179688 -5.41328125 4.50859375 -4.7890625 3.8046875 C-3 2 -3 2 0 0 Z " fill="#FDDD1B" transform="translate(225,477)"/>
<path d="M0 0 C4.52615993 3.67832017 8.39424999 7.41086363 12 12 C11.01 12.495 11.01 12.495 10 13 C1.18451025 6.07061503 1.18451025 6.07061503 0 0 Z " fill="#FEE21F" transform="translate(214,633)"/>
<path d="M0 0 C0 0.99 0 1.98 0 3 C-4.62 3.33 -9.24 3.66 -14 4 C-13.67 3.01 -13.34 2.02 -13 1 C-8.59085217 -0.10228696 -4.51617599 -0.07654536 0 0 Z " fill="#FDDA19" transform="translate(270,460)"/>
<path d="M0 0 C-1.57789598 1.15330947 -3.1625482 2.29737927 -4.75 3.4375 C-5.63171875 4.07558594 -6.5134375 4.71367188 -7.421875 5.37109375 C-9.72699125 6.8275081 -11.34349572 7.55931821 -14 8 C-14 7.34 -14 6.68 -14 6 C-13.34 6 -12.68 6 -12 6 C-12 5.34 -12 4.68 -12 4 C-10.390625 2.67578125 -10.390625 2.67578125 -8.25 1.3125 C-7.55390625 0.85488281 -6.8578125 0.39726563 -6.140625 -0.07421875 C-3.60909275 -1.16906025 -2.53899138 -0.9435441 0 0 Z " fill="#FDDC18" transform="translate(324,612)"/>
<path d="M0 0 C1.32 0.33 2.64 0.66 4 1 C0.7 3.97 -2.6 6.94 -6 10 C-6.99 9.67 -7.98 9.34 -9 9 C-7.59921602 7.46452525 -6.17879097 5.94694852 -4.75 4.4375 C-3.56664062 3.16712891 -3.56664062 3.16712891 -2.359375 1.87109375 C-1.58078125 1.25363281 -0.8021875 0.63617187 0 0 Z " fill="#FBD315" transform="translate(539,641)"/>
<path d="M0 0 C0.66 0 1.32 0 2 0 C1.40984815 5.50808397 0.43336231 10.64878069 -1 16 C-1.33 15.34 -1.66 14.68 -2 14 C-2.66 13.67 -3.32 13.34 -4 13 C-3.79503906 12.39671875 -3.59007812 11.7934375 -3.37890625 11.171875 C-2.97478516 9.97304688 -2.97478516 9.97304688 -2.5625 8.75 C-2.29566406 7.96109375 -2.02882812 7.1721875 -1.75390625 6.359375 C-1.08045292 4.25178012 -0.50849405 2.15246027 0 0 Z " fill="#FDDE1C" transform="translate(196,519)"/>
<path d="M0 0 C0.66 0 1.32 0 2 0 C1.34 2.97 0.68 5.94 0 9 C-0.66 9 -1.32 9 -2 9 C-2.33 9.66 -2.66 10.32 -3 11 C-3.33 10.34 -3.66 9.68 -4 9 C-3.22265625 6.8359375 -3.22265625 6.8359375 -2.0625 4.375 C-1.68222656 3.55773437 -1.30195312 2.74046875 -0.91015625 1.8984375 C-0.60980469 1.27195312 -0.30945313 0.64546875 0 0 Z " fill="#FBD719" transform="translate(548,585)"/>
<path d="M0 0 C0.66 0.66 1.32 1.32 2 2 C0.90241493 2.84198307 -0.20335317 3.67330671 -1.3125 4.5 C-1.92738281 4.9640625 -2.54226563 5.428125 -3.17578125 5.90625 C-5 7 -5 7 -8 7 C-8 6.34 -8 5.68 -8 5 C-6.36935236 3.94228261 -4.69719127 2.94726954 -3 2 C-2.01 1.34 -1.02 0.68 0 0 Z " fill="#FCDE15" transform="translate(528,614)"/>
<path d="M0 0 C0.66 0 1.32 0 2 0 C3.32286246 4.96073422 3.08893197 9.91111512 3 15 C2.67 15 2.34 15 2 15 C2 12.36 2 9.72 2 7 C1.34 7 0.68 7 0 7 C0 4.69 0 2.38 0 0 Z " fill="#F7C315" transform="translate(190,550)"/>
<path d="M0 0 C0.99 0.33 1.98 0.66 3 1 C2.67 4.3 2.34 7.6 2 11 C-1.125 4.75 -1.125 4.75 0 0 Z " fill="#FAD115" transform="translate(239,545)"/>
<path d="M0 0 C-2.39763185 2.39763185 -3.33273498 2.34280586 -6.625 2.625 C-7.44226563 2.69976563 -8.25953125 2.77453125 -9.1015625 2.8515625 C-9.72804688 2.90054688 -10.35453125 2.94953125 -11 3 C-10 1 -10 1 -8.3125 0.375 C-5.51555886 -0.07855802 -2.82858003 -0.06428591 0 0 Z " fill="#FDE21B" transform="translate(309,620)"/>
<path d="M0 0 C0.66 0 1.32 0 2 0 C2.33 2.31 2.66 4.62 3 7 C2.34 7 1.68 7 1 7 C0.34 5.02 -0.32 3.04 -1 1 C-0.67 0.67 -0.34 0.34 0 0 Z " fill="#F9D317" transform="translate(337,533)"/>
<path d="M0 0 C1.65 1.65 3.3 3.3 5 5 C3.68 5 2.36 5 1 5 C0.34 4.01 -0.32 3.02 -1 2 C-0.67 1.34 -0.34 0.68 0 0 Z " fill="#FBD013" transform="translate(323,509)"/>
</svg>
