<svg viewBox="0 0 120 40" xmlns="http://www.w3.org/2000/svg">
  <defs>
    <linearGradient id="logoGradient" x1="0%" y1="0%" x2="100%" y2="0%">
      <stop offset="0%" style="stop-color:#003262"/>
      <stop offset="100%" style="stop-color:#FDB515"/>
    </linearGradient>
  </defs>
  
  <!-- D -->
  <path d="M2 8h8c6 0 10 4 10 12s-4 12-10 12H2V8zm8 20c3.5 0 6-2.5 6-8s-2.5-8-6-8H6v16h4z" fill="url(#logoGradient)"/>
  
  <!-- U -->
  <path d="M26 8v14c0 4 2 6 6 6s6-2 6-6V8h4v14c0 6-4 10-10 10s-10-4-10-10V8h4z" fill="url(#logoGradient)"/>
  
  <!-- L -->
  <path d="M48 8v20h12v4H44V8h4z" fill="url(#logoGradient)"/>
  
  <!-- I -->
  <path d="M66 8h4v24h-4V8z" fill="url(#logoGradient)"/>
  
  <!-- F -->
  <path d="M76 8h16v4H80v6h10v4H80v10h-4V8z" fill="url(#logoGradient)"/>
  
  <!-- Bear icon -->
  <circle cx="104" cy="16" r="3" fill="#003262"/>
  <circle cx="100" cy="14" r="1" fill="#003262"/>
  <circle cx="108" cy="14" r="1" fill="#003262"/>
  <path d="M104 18c-1 0-2 1-2 2v4c0 1 1 2 2 2s2-1 2-2v-4c0-1-1-2-2-2z" fill="#FDB515"/>
</svg>